<svg xmlns="http://www.w3.org/2000/svg" xmlns:xlink="http://www.w3.org/1999/xlink" viewBox="0 0 238.3 358.82"><defs><style>.cls-1{isolation:isolate;}.cls-2{fill:url(#linear-gradient);}.cls-3{mix-blend-mode:soft-light;opacity:0.8;}.cls-4{fill:url(#linear-gradient-2);}.cls-5{fill:url(#linear-gradient-3);}.cls-6{fill:url(#linear-gradient-4);}.cls-7{fill:url(#linear-gradient-5);}.cls-8{fill:url(#linear-gradient-6);}.cls-9{fill:url(#linear-gradient-7);}.cls-10{font-size:73.03px;font-family:AgencyFB-Reg, Agency FB;}</style><linearGradient id="linear-gradient" x1="67.13" y1="33.78" x2="162.65" y2="169.84" gradientUnits="userSpaceOnUse"><stop offset="0" stop-color="#a0ffff"/><stop offset="0.51" stop-color="#7faefb"/><stop offset="1" stop-color="#7f62fa"/></linearGradient><linearGradient id="linear-gradient-2" x1="131.54" y1="70.81" x2="226.29" y2="70.81" gradientUnits="userSpaceOnUse"><stop offset="0" stop-color="#fff" stop-opacity="0"/><stop offset="1" stop-color="#fff"/></linearGradient><linearGradient id="linear-gradient-3" x1="131.54" y1="180.22" x2="226.29" y2="180.22" xlink:href="#linear-gradient-2"/><linearGradient id="linear-gradient-4" x1="222.2" y1="125.52" x2="128.87" y2="125.52" xlink:href="#linear-gradient-2"/><linearGradient id="linear-gradient-5" x1="36.79" y1="70.81" x2="131.54" y2="70.81" xlink:href="#linear-gradient-2"/><linearGradient id="linear-gradient-6" x1="36.79" y1="180.22" x2="131.54" y2="180.22" xlink:href="#linear-gradient-2"/><linearGradient id="linear-gradient-7" x1="131.16" y1="125.52" x2="34.81" y2="125.52" xlink:href="#linear-gradient-2"/></defs><g class="cls-1"><g id="Capa_1" data-name="Capa 1"><polygon class="cls-2" points="36.79 70.81 131.53 16.11 226.28 70.81 226.28 180.22 131.53 234.93 36.79 180.22 36.79 70.81"/><g class="cls-3"><polygon class="cls-4" points="131.54 125.52 226.28 70.81 131.54 16.11 131.54 125.52"/><polygon class="cls-5" points="131.54 125.52 226.28 180.22 131.54 234.93 131.54 125.52"/><polygon class="cls-6" points="226.28 70.81 226.28 180.22 131.54 125.52 226.28 70.81"/><polygon class="cls-7" points="131.54 125.52 36.79 70.81 131.54 16.11 131.54 125.52"/><polygon class="cls-8" points="131.54 125.52 36.79 180.22 131.54 234.93 131.54 125.52"/><polygon class="cls-9" points="36.79 70.81 36.79 180.22 131.54 125.52 36.79 70.81"/></g><path d="M245,126.91a12.51,12.51,0,0,0-12.49-12.63c-7,0-12.17,5.65-12.17,12.63a12.91,12.91,0,0,0,10.9,12.43V163.2l-33.12,33.51c-.42.42-.35,1-.35,1.57v64.13c-6.09,1-11.13,6.2-11.13,12.42a12.34,12.34,0,0,0,12.28,12.64,12.61,12.61,0,0,0,1.89-25.06v-63.2l33.13-33.52c.42-.42.35-1,.35-1.57V139.34A12.74,12.74,0,0,0,245,126.91Z" transform="translate(-67.27 -18.46)"/><path d="M265.56,24.8a12.61,12.61,0,0,0-22.67,10.91L217,51.66a2.2,2.2,0,0,0-1,1.34L203.61,98.69l-30.2,17.07a12.59,12.59,0,1,0,2.21,3.87l31-17.52a2.24,2.24,0,0,0,1.06-1.35L220,55.05l25.2-15.51A12.64,12.64,0,0,0,265.56,24.8Z" transform="translate(-67.27 -18.46)"/><path d="M209.5,140a12.62,12.62,0,0,0-22.77,10.71l-29.87,17.62L127,160.45a2.2,2.2,0,0,0-1.68.23L89.93,178.79a12.54,12.54,0,1,0,2.06,4L126.72,165l29.9,7.87a2.21,2.21,0,0,0,1.69-.22L189,154.56A12.63,12.63,0,0,0,209.5,140Z" transform="translate(-67.27 -18.46)"/><text class="cls-10" transform="translate(43.11 344.2)">LOUTEC</text></g></g></svg>